<svg width="170" height="43" viewBox="0 0 170 43" fill="none" xmlns="http://www.w3.org/2000/svg">
<path d="M31.6505 13.8208V29.5523C31.6505 34.9295 27.3484 39.2878 22.0404 39.2878H12.2417L14.1098 34.9568H22.0493C24.9952 34.9568 27.3843 32.5275 27.3843 29.5523V18.1426H16.4899C13.544 18.1426 11.1549 20.5719 11.1549 23.5472V42.6361H6.87975V23.5472C6.87975 18.1699 11.1818 13.8117 16.4899 13.8117H23.1181V4.96783H14.9451C9.06223 4.96783 4.27515 9.81739 4.27515 15.777V42.627H0.0089812V15.777C-2.0396e-07 7.42446 6.69114 0.645996 14.9451 0.645996H27.3843V13.8208H31.6505Z" fill="#ECE7E2"/>
<path d="M100.493 10.4816C100.699 8.30707 101.391 7.66107 103.385 7.66107C105.199 7.66107 105.864 8.15239 105.963 10.4816H100.493ZM107.498 15.7861C106.475 16.0955 104.759 16.332 103.843 16.332C101.571 16.332 100.493 15.7588 100.466 12.9383H108.873C109.106 6.54194 107.319 5.12256 103.205 5.12256C99.4241 5.12256 97.1518 6.75121 97.1518 12.0284C97.1518 17.4421 99.7025 19.0434 103.466 19.0434C104.795 19.0434 106.708 18.7614 108.01 18.3155L107.498 15.7861Z" fill="#ECE7E2"/>
<path d="M39.2936 9.89018V3.54845H44.3322C45.7063 3.54845 46.4518 4.61299 46.4518 6.80575C46.4518 8.85294 45.6614 9.89018 44.2514 9.89018H39.2936ZM39.2936 18.6885V12.738H45.2752C48.6972 12.738 50.1611 9.94477 50.1611 6.84214C50.1611 3.32099 48.9576 0.655095 45.2034 0.655095L35.9256 0.645996V18.6885H39.2936Z" fill="#ECE7E2"/>
<path d="M54.9033 0H51.7329V15.1128C51.7329 17.0326 52.2179 18.27 53.1071 19.3072L55.8913 18.088C55.1728 17.1327 54.8944 16.2501 54.8944 14.9854V0H54.9033Z" fill="#ECE7E2"/>
<path d="M65.5014 16.15C64.7649 16.4048 63.8129 16.5867 62.8968 16.5867C60.9747 16.5867 60.4987 16.3047 60.4987 14.5214C60.4987 12.8381 61.1364 12.6288 62.9237 12.6288C63.8667 12.6288 64.7829 12.7016 65.5014 12.8563V16.15ZM68.5461 10.2541C68.5461 6.32351 66.7857 5.13159 62.9237 5.13159C61.0556 5.13159 59.0886 5.46824 57.7325 5.83218L58.3162 8.47078C59.385 8.07954 60.8221 7.82478 62.2501 7.82478C64.9535 7.82478 65.4924 8.39799 65.4924 10.6999C64.3967 10.4634 63.3728 10.336 62.277 10.336C59.2413 10.336 57.1666 10.9365 57.1666 14.6578C57.1666 18.0971 58.5498 19.0616 62.6632 19.0616C64.4775 19.0616 66.9025 18.6703 68.5371 18.0243V10.2541H68.5461Z" fill="#ECE7E2"/>
<path d="M73.6745 8.33437C74.4379 8.1251 75.1833 8.02501 76.0007 8.02501C78.246 8.02501 78.7849 8.7438 78.7849 11.6736V18.6886H81.9553V11.3369C81.9553 6.59653 80.3207 5.12256 76.6653 5.12256C74.5996 5.12256 72.0937 5.64118 70.504 6.25988V18.6886H73.6745V8.33437Z" fill="#ECE7E2"/>
<path d="M87.0747 8.33437C87.8381 8.1251 88.5836 8.02501 89.4009 8.02501C91.6462 8.02501 92.1851 8.7438 92.1851 11.6736V18.6886H95.3556V11.3369C95.3556 6.59653 93.7209 5.12256 90.0655 5.12256C87.9998 5.12256 85.494 5.64118 83.9043 6.25988V18.6886H87.0747V8.33437Z" fill="#ECE7E2"/>
<path d="M119.12 15.9135C118.456 16.15 117.486 16.3047 116.615 16.3047C114.369 16.3047 113.624 15.6314 113.624 12.0375C113.624 8.75286 114.333 7.843 116.561 7.843C117.989 7.843 119.12 8.33432 119.12 9.1077V15.9135ZM122.291 0H119.12V5.8777C118.429 5.48646 117.486 5.13161 116.004 5.13161C112.528 5.13161 110.354 6.76026 110.354 12.092C110.354 17.4966 112.321 19.0525 116.615 19.0525C118.483 19.0525 120.881 18.6612 122.282 18.0971V0H122.291Z" fill="#ECE7E2"/>
<path d="M39.2936 33.8468V27.5051H44.3322C45.7063 27.5051 46.4518 28.5606 46.4518 30.7624C46.4518 32.8096 45.6614 33.8468 44.2514 33.8468H39.2936ZM39.2936 42.6452V36.6947H45.2752C48.6972 36.6947 50.1611 33.9014 50.1611 30.7897C50.1611 27.2686 48.9576 24.6027 45.2034 24.6027H35.9256V42.6452H39.2936Z" fill="#ECE7E2"/>
<path d="M59.5467 40.1067C58.8102 40.3705 57.8582 40.5525 56.9421 40.5525C55.0291 40.5525 54.5441 40.2704 54.5441 38.478C54.5441 36.7948 55.1817 36.5855 56.969 36.5855C57.9121 36.5855 58.8372 36.6674 59.5467 36.8221V40.1067ZM62.5914 34.2108C62.5914 30.2711 60.8221 29.0883 56.969 29.0883C55.1009 29.0883 53.134 29.4249 51.7868 29.7889L52.3706 32.4274C53.4394 32.0453 54.8764 31.7814 56.3044 31.7814C59.0078 31.7814 59.5467 32.3456 59.5467 34.6566C58.451 34.4291 57.4271 34.2927 56.3314 34.2927C53.2957 34.2927 51.2209 34.8841 51.2209 38.6145C51.2209 42.0538 52.6041 43.0091 56.7176 43.0091C58.5318 43.0091 60.9568 42.627 62.5914 41.9719V34.2108Z" fill="#ECE7E2"/>
<path d="M64.5583 42.6452H67.7288V33.5102C67.7288 32.5548 69.1389 32.0362 70.7196 32.0362C71.2854 32.0362 71.9231 32.109 72.3811 32.2182V29.1701C71.9231 29.1156 71.483 29.0883 71.0519 29.0883C69.1838 29.0883 68.1868 29.7343 67.7288 30.4621V29.4795H64.5583V42.6452Z" fill="#ECE7E2"/>
<path d="M76.2342 34.4382C76.4407 32.2636 77.1323 31.6176 79.1172 31.6176C80.9314 31.6176 81.5961 32.1089 81.6949 34.4382H76.2342ZM83.2307 39.7427C82.2068 40.052 80.5003 40.2886 79.5752 40.2886C77.3029 40.2886 76.2252 39.7154 76.2072 36.8948H84.6138C84.8473 30.4985 83.051 29.0791 78.9376 29.0791C75.1564 29.0791 72.8841 30.7078 72.8841 35.9849C72.8841 41.3986 75.4348 43 79.189 43C80.5183 43 82.4403 42.7179 83.7426 42.2812L83.2307 39.7427Z" fill="#ECE7E2"/>
<path d="M89.4368 32.2909C90.2002 32.0907 90.9457 31.9816 91.763 31.9816C94.0083 31.9816 94.5472 32.7094 94.5472 35.6301V42.6451H97.7177V35.2935C97.7177 30.5531 96.0831 29.0791 92.4276 29.0791C90.3619 29.0791 87.8561 29.5977 86.2754 30.2255V42.6451H89.4458V32.2909H89.4368Z" fill="#ECE7E2"/>
<path d="M108.415 32.2636V29.4703H104.094V25.9219L100.924 27.2412V29.4703H98.7505V32.2636H100.924V38.2141C100.924 42.1265 102.352 43 105.262 43C106.51 43 107.921 42.7452 108.837 42.4085L108.271 39.87C107.633 40.0793 106.888 40.234 106.052 40.234C104.517 40.234 104.085 39.5607 104.085 37.932V32.2636H108.415Z" fill="#ECE7E2"/>
<path d="M121.42 35.057C121.42 30.1346 119.758 29.0792 116.713 29.0792C115.384 29.0792 113.983 29.5432 113.139 29.989V23.9567H109.968V42.6452H113.139V33.1463C113.139 32.3729 114.342 31.9816 115.645 31.9816C117.683 31.9816 118.249 33.1463 118.249 35.3208V42.6452H121.42V35.057Z" fill="#ECE7E2"/>
<path d="M126.18 36.0486C126.18 32.2727 126.871 31.6722 129.09 31.6722C131.362 31.6722 132.054 32.2636 132.054 36.0486C132.054 39.6971 131.362 40.425 129.09 40.425C126.871 40.4159 126.18 39.6971 126.18 36.0486ZM122.91 35.994C122.91 41.4077 124.958 43.009 129.09 43.009C133.284 43.009 135.323 41.4077 135.323 35.994C135.323 30.6076 133.257 29.0882 129.09 29.0882C124.976 29.0791 122.91 30.6076 122.91 35.994Z" fill="#ECE7E2"/>
<path d="M140.02 36.0486C140.02 32.2727 140.712 31.6722 142.93 31.6722C145.211 31.6722 145.894 32.2636 145.894 36.0486C145.894 39.6971 145.211 40.425 142.93 40.425C140.712 40.4159 140.02 39.6971 140.02 36.0486ZM136.751 35.994C136.751 41.4077 138.799 43.009 142.93 43.009C147.124 43.009 149.163 41.4077 149.163 35.994C149.163 30.6076 147.097 29.0882 142.93 29.0882C138.817 29.0791 136.751 30.6076 136.751 35.994Z" fill="#ECE7E2"/>
<path d="M159.33 39.8792C158.665 40.1067 157.695 40.2705 156.824 40.2705C154.57 40.2705 153.833 39.5972 153.833 36.0032C153.833 32.7186 154.552 31.8088 156.77 31.8088C158.207 31.8088 159.33 32.3001 159.33 33.0735V39.8792ZM162.492 23.9567H159.321V29.8344C158.63 29.4431 157.686 29.0792 156.205 29.0792C152.729 29.0792 150.555 30.7078 150.555 36.0396C150.555 41.4533 152.522 43 156.815 43C158.683 43 161.081 42.6179 162.483 42.0447V23.9567H162.492Z" fill="#ECE7E2"/>
<path d="M167.225 26.1676H167.656C167.916 26.1676 168.087 26.1221 168.087 25.8401C168.087 25.5489 167.809 25.5125 167.593 25.5125H167.216V26.1676H167.225ZM166.632 25.0303H167.656C168.347 25.0303 168.671 25.3306 168.671 25.8674C168.671 26.3223 168.383 26.5771 167.997 26.6226L168.653 27.7053H168.024L167.431 26.6408H167.207V27.7053H166.623V25.0303H166.632ZM167.593 28.1693C168.608 28.1693 169.299 27.4687 169.299 26.3678C169.299 25.2578 168.608 24.5572 167.593 24.5572C166.578 24.5572 165.887 25.2578 165.887 26.3678C165.887 27.4687 166.578 28.1693 167.593 28.1693ZM167.593 23.9203C168.922 23.9203 170 25.0121 170 26.3587C170 27.7053 168.922 28.7971 167.593 28.7971C166.264 28.7971 165.186 27.7053 165.186 26.3587C165.186 25.0212 166.264 23.9203 167.593 23.9203Z" fill="#ECE7E2"/>
</svg>